<mxfile host="app.diagrams.net" modified="2023-12-05T10:29:51.624Z" agent="Mozilla/5.0 (Windows NT 10.0; Win64; x64) AppleWebKit/537.36 (KHTML, like Gecko) Chrome/119.0.0.0 Safari/537.36" version="22.1.5" etag="3GCvIm6PJienRyxpIAdz" type="github">
  <diagram name="페이지-1" id="NWMa3qdQDlLlpgsDPK9D">
    <mxGraphModel>
      <root>
        <mxCell id="0" />
        <mxCell id="1" parent="0" />
      </root>
    </mxGraphModel>
  </diagram>
</mxfile>
